<mxfile host="app.diagrams.net" modified="2021-08-18T07:04:05.283Z" agent="5.0 (Windows NT 10.0; Win64; x64) AppleWebKit/537.36 (KHTML, like Gecko) Chrome/92.0.4515.159 Safari/537.36" etag="Ee-_Ecl7atxnEUUrg6xA" version="14.9.7" type="github">
  <diagram id="XKIl71Al67om60rIOHNz" name="Page-1">
    <mxGraphModel dx="1422" dy="762" grid="1" gridSize="10" guides="1" tooltips="1" connect="1" arrows="1" fold="1" page="1" pageScale="1" pageWidth="827" pageHeight="1169" math="0" shadow="0">
      <root>
        <mxCell id="0" />
        <mxCell id="1" parent="0" />
        <mxCell id="aoDdG5EnQlypUThFeDON-4" style="edgeStyle=orthogonalEdgeStyle;rounded=0;orthogonalLoop=1;jettySize=auto;html=1;entryX=1;entryY=0.5;entryDx=0;entryDy=0;" edge="1" parent="1" source="DNmkQCw8uFb5t1DsJ-0Z-25" target="aoDdG5EnQlypUThFeDON-2">
          <mxGeometry relative="1" as="geometry">
            <Array as="points">
              <mxPoint x="396" y="160" />
            </Array>
          </mxGeometry>
        </mxCell>
        <mxCell id="aoDdG5EnQlypUThFeDON-11" style="edgeStyle=orthogonalEdgeStyle;rounded=0;orthogonalLoop=1;jettySize=auto;html=1;entryX=0;entryY=0.5;entryDx=0;entryDy=0;" edge="1" parent="1" source="DNmkQCw8uFb5t1DsJ-0Z-25" target="aoDdG5EnQlypUThFeDON-6">
          <mxGeometry relative="1" as="geometry" />
        </mxCell>
        <mxCell id="DNmkQCw8uFb5t1DsJ-0Z-25" value="&amp;nbsp;Image" style="rounded=0;whiteSpace=wrap;html=1;" parent="1" vertex="1">
          <mxGeometry x="341.01" width="120" height="60" as="geometry" />
        </mxCell>
        <mxCell id="DNmkQCw8uFb5t1DsJ-0Z-66" value="" style="edgeStyle=orthogonalEdgeStyle;rounded=0;orthogonalLoop=1;jettySize=auto;html=1;entryX=0;entryY=0.5;entryDx=0;entryDy=0;exitX=0.5;exitY=1;exitDx=0;exitDy=0;" parent="1" source="DNmkQCw8uFb5t1DsJ-0Z-75" target="DNmkQCw8uFb5t1DsJ-0Z-70" edge="1">
          <mxGeometry x="-0.8794" relative="1" as="geometry">
            <mxPoint x="446" y="1100" as="targetPoint" />
            <mxPoint x="96" y="530" as="sourcePoint" />
            <Array as="points">
              <mxPoint x="96" y="1200" />
            </Array>
            <mxPoint as="offset" />
          </mxGeometry>
        </mxCell>
        <mxCell id="DNmkQCw8uFb5t1DsJ-0Z-37" value="" style="edgeStyle=orthogonalEdgeStyle;rounded=0;orthogonalLoop=1;jettySize=auto;html=1;" parent="1" source="DNmkQCw8uFb5t1DsJ-0Z-34" target="DNmkQCw8uFb5t1DsJ-0Z-36" edge="1">
          <mxGeometry relative="1" as="geometry">
            <Array as="points">
              <mxPoint x="616" y="380" />
            </Array>
          </mxGeometry>
        </mxCell>
        <mxCell id="DNmkQCw8uFb5t1DsJ-0Z-43" style="edgeStyle=orthogonalEdgeStyle;rounded=0;orthogonalLoop=1;jettySize=auto;html=1;entryX=0.5;entryY=0;entryDx=0;entryDy=0;" parent="1" source="DNmkQCw8uFb5t1DsJ-0Z-34" target="DNmkQCw8uFb5t1DsJ-0Z-47" edge="1">
          <mxGeometry relative="1" as="geometry">
            <mxPoint x="526" y="440" as="targetPoint" />
            <Array as="points">
              <mxPoint x="616" y="380" />
              <mxPoint x="521" y="380" />
            </Array>
          </mxGeometry>
        </mxCell>
        <mxCell id="DNmkQCw8uFb5t1DsJ-0Z-45" style="edgeStyle=orthogonalEdgeStyle;rounded=0;orthogonalLoop=1;jettySize=auto;html=1;entryX=0;entryY=0.5;entryDx=0;entryDy=0;" parent="1" source="DNmkQCw8uFb5t1DsJ-0Z-34" target="DNmkQCw8uFb5t1DsJ-0Z-48" edge="1">
          <mxGeometry relative="1" as="geometry">
            <mxPoint x="716" y="440" as="targetPoint" />
            <Array as="points">
              <mxPoint x="616" y="380" />
              <mxPoint x="721" y="380" />
            </Array>
          </mxGeometry>
        </mxCell>
        <mxCell id="DNmkQCw8uFb5t1DsJ-0Z-69" value="Fire Candidates" style="edgeLabel;html=1;align=center;verticalAlign=middle;resizable=0;points=[];" parent="DNmkQCw8uFb5t1DsJ-0Z-45" vertex="1" connectable="0">
          <mxGeometry x="-0.8566" y="1" relative="1" as="geometry">
            <mxPoint as="offset" />
          </mxGeometry>
        </mxCell>
        <mxCell id="DNmkQCw8uFb5t1DsJ-0Z-34" value="Blob Detection" style="rounded=0;whiteSpace=wrap;html=1;" parent="1" vertex="1">
          <mxGeometry x="556" y="260" width="120" height="60" as="geometry" />
        </mxCell>
        <mxCell id="DNmkQCw8uFb5t1DsJ-0Z-52" value="" style="edgeStyle=orthogonalEdgeStyle;rounded=0;orthogonalLoop=1;jettySize=auto;html=1;" parent="1" source="DNmkQCw8uFb5t1DsJ-0Z-36" target="DNmkQCw8uFb5t1DsJ-0Z-51" edge="1">
          <mxGeometry relative="1" as="geometry" />
        </mxCell>
        <mxCell id="DNmkQCw8uFb5t1DsJ-0Z-36" value="Object Tracking" style="rounded=0;whiteSpace=wrap;html=1;" parent="1" vertex="1">
          <mxGeometry x="266" y="350" width="120" height="60" as="geometry" />
        </mxCell>
        <mxCell id="DNmkQCw8uFb5t1DsJ-0Z-61" value="Yes" style="edgeStyle=orthogonalEdgeStyle;rounded=0;orthogonalLoop=1;jettySize=auto;html=1;entryX=0.5;entryY=0;entryDx=0;entryDy=0;" parent="1" source="DNmkQCw8uFb5t1DsJ-0Z-47" target="DNmkQCw8uFb5t1DsJ-0Z-56" edge="1">
          <mxGeometry x="-0.3333" relative="1" as="geometry">
            <mxPoint x="521" y="710" as="targetPoint" />
            <Array as="points" />
            <mxPoint as="offset" />
          </mxGeometry>
        </mxCell>
        <mxCell id="DNmkQCw8uFb5t1DsJ-0Z-47" value="Flame Boundary Disorder Detection" style="rhombus;whiteSpace=wrap;html=1;" parent="1" vertex="1">
          <mxGeometry x="436.01" y="460" width="170" height="140" as="geometry" />
        </mxCell>
        <mxCell id="DNmkQCw8uFb5t1DsJ-0Z-62" value="Yes" style="edgeStyle=orthogonalEdgeStyle;rounded=0;orthogonalLoop=1;jettySize=auto;html=1;" parent="1" source="DNmkQCw8uFb5t1DsJ-0Z-48" edge="1">
          <mxGeometry x="-0.7288" relative="1" as="geometry">
            <mxPoint x="526" y="680" as="targetPoint" />
            <Array as="points">
              <mxPoint x="721" y="680" />
              <mxPoint x="516" y="680" />
            </Array>
            <mxPoint as="offset" />
          </mxGeometry>
        </mxCell>
        <mxCell id="DNmkQCw8uFb5t1DsJ-0Z-48" value="Flame Area Change Detection" style="rhombus;whiteSpace=wrap;html=1;direction=south;" parent="1" vertex="1">
          <mxGeometry x="646" y="460" width="150" height="140" as="geometry" />
        </mxCell>
        <mxCell id="DNmkQCw8uFb5t1DsJ-0Z-63" value="No" style="edgeStyle=orthogonalEdgeStyle;rounded=0;orthogonalLoop=1;jettySize=auto;html=1;" parent="1" source="DNmkQCw8uFb5t1DsJ-0Z-51" edge="1">
          <mxGeometry x="-0.6842" relative="1" as="geometry">
            <mxPoint x="516" y="680" as="targetPoint" />
            <Array as="points">
              <mxPoint x="326" y="680" />
              <mxPoint x="526" y="680" />
            </Array>
            <mxPoint as="offset" />
          </mxGeometry>
        </mxCell>
        <mxCell id="DNmkQCw8uFb5t1DsJ-0Z-51" value="Motion Detection" style="rhombus;whiteSpace=wrap;html=1;rounded=0;" parent="1" vertex="1">
          <mxGeometry x="241" y="455" width="170" height="150" as="geometry" />
        </mxCell>
        <mxCell id="DNmkQCw8uFb5t1DsJ-0Z-65" style="edgeStyle=orthogonalEdgeStyle;rounded=0;orthogonalLoop=1;jettySize=auto;html=1;exitX=0.5;exitY=1;exitDx=0;exitDy=0;entryX=0.5;entryY=0;entryDx=0;entryDy=0;" parent="1" source="DNmkQCw8uFb5t1DsJ-0Z-56" target="DNmkQCw8uFb5t1DsJ-0Z-64" edge="1">
          <mxGeometry relative="1" as="geometry" />
        </mxCell>
        <mxCell id="DNmkQCw8uFb5t1DsJ-0Z-56" value="Thermal, Area Tracking" style="rounded=0;whiteSpace=wrap;html=1;" parent="1" vertex="1">
          <mxGeometry x="461.01" y="720" width="120" height="60" as="geometry" />
        </mxCell>
        <mxCell id="DNmkQCw8uFb5t1DsJ-0Z-71" value="" style="edgeStyle=orthogonalEdgeStyle;rounded=0;orthogonalLoop=1;jettySize=auto;html=1;entryX=0.5;entryY=0;entryDx=0;entryDy=0;startArrow=none;" parent="1" source="DNmkQCw8uFb5t1DsJ-0Z-72" target="DNmkQCw8uFb5t1DsJ-0Z-70" edge="1">
          <mxGeometry x="-1" y="-80" relative="1" as="geometry">
            <mxPoint x="80" y="-80" as="offset" />
          </mxGeometry>
        </mxCell>
        <mxCell id="DNmkQCw8uFb5t1DsJ-0Z-64" value="Thermal, Area Explosion" style="rhombus;whiteSpace=wrap;html=1;" parent="1" vertex="1">
          <mxGeometry x="444.13" y="810" width="153.75" height="110" as="geometry" />
        </mxCell>
        <mxCell id="DNmkQCw8uFb5t1DsJ-0Z-76" value="No" style="edgeStyle=orthogonalEdgeStyle;rounded=0;orthogonalLoop=1;jettySize=auto;html=1;exitX=0.5;exitY=1;exitDx=0;exitDy=0;" parent="1" source="DNmkQCw8uFb5t1DsJ-0Z-70" edge="1">
          <mxGeometry x="-0.3333" relative="1" as="geometry">
            <mxPoint x="521" y="1280" as="targetPoint" />
            <mxPoint x="515.59" y="1250" as="sourcePoint" />
            <mxPoint as="offset" />
          </mxGeometry>
        </mxCell>
        <mxCell id="DNmkQCw8uFb5t1DsJ-0Z-83" value="Yes" style="edgeStyle=orthogonalEdgeStyle;rounded=0;orthogonalLoop=1;jettySize=auto;html=1;exitX=1;exitY=0.5;exitDx=0;exitDy=0;entryX=0;entryY=0.5;entryDx=0;entryDy=0;" parent="1" source="DNmkQCw8uFb5t1DsJ-0Z-70" target="DNmkQCw8uFb5t1DsJ-0Z-81" edge="1">
          <mxGeometry relative="1" as="geometry">
            <mxPoint x="641" y="1190" as="targetPoint" />
          </mxGeometry>
        </mxCell>
        <mxCell id="DNmkQCw8uFb5t1DsJ-0Z-70" value="Person Present" style="rhombus;whiteSpace=wrap;html=1;" parent="1" vertex="1">
          <mxGeometry x="441.01" y="1150" width="160" height="100" as="geometry" />
        </mxCell>
        <mxCell id="DNmkQCw8uFb5t1DsJ-0Z-72" value="Alarm Decision Unit" style="whiteSpace=wrap;html=1;" parent="1" vertex="1">
          <mxGeometry x="461.01" y="960" width="120" height="60" as="geometry" />
        </mxCell>
        <mxCell id="DNmkQCw8uFb5t1DsJ-0Z-74" value="" style="edgeStyle=orthogonalEdgeStyle;rounded=0;orthogonalLoop=1;jettySize=auto;html=1;entryX=0.5;entryY=0;entryDx=0;entryDy=0;endArrow=none;" parent="1" source="DNmkQCw8uFb5t1DsJ-0Z-64" target="DNmkQCw8uFb5t1DsJ-0Z-72" edge="1">
          <mxGeometry relative="1" as="geometry">
            <mxPoint x="521.0099999999998" y="1039.996422764228" as="sourcePoint" />
            <mxPoint x="521.0099999999998" y="1200" as="targetPoint" />
          </mxGeometry>
        </mxCell>
        <mxCell id="DNmkQCw8uFb5t1DsJ-0Z-75" value="Person Detection" style="whiteSpace=wrap;html=1;aspect=fixed;" parent="1" vertex="1">
          <mxGeometry x="46" y="350" width="100" height="100" as="geometry" />
        </mxCell>
        <mxCell id="CYrAJQKPBuSz-JgQyzIM-3" value="" style="edgeStyle=orthogonalEdgeStyle;rounded=0;orthogonalLoop=1;jettySize=auto;html=1;" parent="1" source="DNmkQCw8uFb5t1DsJ-0Z-79" target="CYrAJQKPBuSz-JgQyzIM-2" edge="1">
          <mxGeometry relative="1" as="geometry" />
        </mxCell>
        <mxCell id="DNmkQCw8uFb5t1DsJ-0Z-79" value="Send Coordinate&lt;br&gt;Fire Suppression" style="rounded=0;whiteSpace=wrap;html=1;" parent="1" vertex="1">
          <mxGeometry x="466" y="1280" width="120" height="60" as="geometry" />
        </mxCell>
        <mxCell id="DNmkQCw8uFb5t1DsJ-0Z-84" value="No" style="edgeStyle=orthogonalEdgeStyle;rounded=0;orthogonalLoop=1;jettySize=auto;html=1;entryX=1;entryY=0.5;entryDx=0;entryDy=0;" parent="1" target="DNmkQCw8uFb5t1DsJ-0Z-79" edge="1">
          <mxGeometry x="-0.6923" relative="1" as="geometry">
            <Array as="points">
              <mxPoint x="721" y="1310" />
            </Array>
            <mxPoint as="offset" />
            <mxPoint x="721" y="1240" as="sourcePoint" />
          </mxGeometry>
        </mxCell>
        <mxCell id="DNmkQCw8uFb5t1DsJ-0Z-81" value="Turn Off Alarm&lt;br&gt;After 30s" style="rhombus;whiteSpace=wrap;html=1;" parent="1" vertex="1">
          <mxGeometry x="641" y="1150" width="160" height="100" as="geometry" />
        </mxCell>
        <mxCell id="CYrAJQKPBuSz-JgQyzIM-1" value="Alarm&amp;nbsp;" style="whiteSpace=wrap;html=1;" parent="1" vertex="1">
          <mxGeometry x="461.01" y="1060" width="120" height="60" as="geometry" />
        </mxCell>
        <mxCell id="CYrAJQKPBuSz-JgQyzIM-4" value="No&lt;br&gt;" style="edgeStyle=orthogonalEdgeStyle;rounded=0;orthogonalLoop=1;jettySize=auto;html=1;exitX=0.5;exitY=1;exitDx=0;exitDy=0;entryX=0.5;entryY=1;entryDx=0;entryDy=0;" parent="1" source="CYrAJQKPBuSz-JgQyzIM-2" target="DNmkQCw8uFb5t1DsJ-0Z-79" edge="1">
          <mxGeometry relative="1" as="geometry">
            <mxPoint x="536" y="1410" as="targetPoint" />
            <Array as="points">
              <mxPoint x="346" y="1410" />
              <mxPoint x="526" y="1410" />
            </Array>
          </mxGeometry>
        </mxCell>
        <mxCell id="CYrAJQKPBuSz-JgQyzIM-5" value="Yes" style="edgeStyle=orthogonalEdgeStyle;rounded=0;orthogonalLoop=1;jettySize=auto;html=1;entryX=0;entryY=0.5;entryDx=0;entryDy=0;" parent="1" source="CYrAJQKPBuSz-JgQyzIM-2" target="DNmkQCw8uFb5t1DsJ-0Z-25" edge="1">
          <mxGeometry x="-0.9302" relative="1" as="geometry">
            <mxPoint x="56" y="140" as="targetPoint" />
            <Array as="points">
              <mxPoint x="26" y="1310" />
              <mxPoint x="26" y="30" />
            </Array>
            <mxPoint as="offset" />
          </mxGeometry>
        </mxCell>
        <mxCell id="CYrAJQKPBuSz-JgQyzIM-2" value="Flame Disappear" style="rhombus;whiteSpace=wrap;html=1;rounded=0;" parent="1" vertex="1">
          <mxGeometry x="286" y="1265" width="120" height="90" as="geometry" />
        </mxCell>
        <mxCell id="aoDdG5EnQlypUThFeDON-5" style="edgeStyle=orthogonalEdgeStyle;rounded=0;orthogonalLoop=1;jettySize=auto;html=1;entryX=0.5;entryY=0;entryDx=0;entryDy=0;" edge="1" parent="1" source="aoDdG5EnQlypUThFeDON-2" target="DNmkQCw8uFb5t1DsJ-0Z-75">
          <mxGeometry relative="1" as="geometry" />
        </mxCell>
        <mxCell id="aoDdG5EnQlypUThFeDON-2" value="&amp;nbsp;Display Image" style="rounded=0;whiteSpace=wrap;html=1;" vertex="1" parent="1">
          <mxGeometry x="241" y="130" width="120" height="60" as="geometry" />
        </mxCell>
        <mxCell id="aoDdG5EnQlypUThFeDON-10" value="" style="edgeStyle=orthogonalEdgeStyle;rounded=0;orthogonalLoop=1;jettySize=auto;html=1;" edge="1" parent="1" source="aoDdG5EnQlypUThFeDON-6" target="aoDdG5EnQlypUThFeDON-9">
          <mxGeometry relative="1" as="geometry" />
        </mxCell>
        <mxCell id="aoDdG5EnQlypUThFeDON-6" value="Thermal Image" style="rounded=0;whiteSpace=wrap;html=1;" vertex="1" parent="1">
          <mxGeometry x="430" y="130" width="103.99" height="60" as="geometry" />
        </mxCell>
        <mxCell id="aoDdG5EnQlypUThFeDON-12" style="edgeStyle=orthogonalEdgeStyle;rounded=0;orthogonalLoop=1;jettySize=auto;html=1;entryX=0.5;entryY=0;entryDx=0;entryDy=0;" edge="1" parent="1" source="aoDdG5EnQlypUThFeDON-9" target="DNmkQCw8uFb5t1DsJ-0Z-34">
          <mxGeometry relative="1" as="geometry" />
        </mxCell>
        <mxCell id="aoDdG5EnQlypUThFeDON-9" value="Binary Image" style="whiteSpace=wrap;html=1;rounded=0;" vertex="1" parent="1">
          <mxGeometry x="556.005" y="130" width="120" height="60" as="geometry" />
        </mxCell>
      </root>
    </mxGraphModel>
  </diagram>
</mxfile>
